<svg xmlns="http://www.w3.org/2000/svg" width="1603.5" viewBox="0 0 1603.5 369" height="369" version="1.0"><defs><clipPath id="a"><path d="M 257 49 L 360 49 L 360 138 L 257 138 Z M 257 49"/></clipPath><clipPath id="b"><path d="M 156.359375 314.03125 L 307.847656 49.023438 L 537.042969 180.039062 L 385.554688 445.046875 Z M 156.359375 314.03125"/></clipPath><clipPath id="c"><path d="M 537.363281 180.074219 L 385.875 445.082031 L 156.679688 314.066406 L 308.164062 49.058594 Z M 537.363281 180.074219"/></clipPath><clipPath id="d"><path d="M 268 178 L 350 178 L 350 249 L 268 249 Z M 268 178"/></clipPath><clipPath id="e"><path d="M 156.359375 314.03125 L 307.847656 49.023438 L 537.042969 180.039062 L 385.554688 445.046875 Z M 156.359375 314.03125"/></clipPath><clipPath id="f"><path d="M 537.363281 180.074219 L 385.875 445.082031 L 156.679688 314.066406 L 308.164062 49.058594 Z M 537.363281 180.074219"/></clipPath><clipPath id="g"><path d="M 156 162 L 462 162 L 462 314 L 156 314 Z M 156 162"/></clipPath><clipPath id="h"><path d="M 156.359375 314.03125 L 307.847656 49.023438 L 537.042969 180.039062 L 385.554688 445.046875 Z M 156.359375 314.03125"/></clipPath><clipPath id="i"><path d="M 537.363281 180.074219 L 385.875 445.082031 L 156.679688 314.066406 L 308.164062 49.058594 Z M 537.363281 180.074219"/></clipPath></defs><g clip-path="url(#a)"><g clip-path="url(#b)"><g clip-path="url(#c)"><path fill="#FFF" d="M 359.1875 136.710938 L 257.777344 137.175781 L 308.128906 49.097656 Z M 359.1875 136.710938"/></g></g></g><g clip-path="url(#d)"><g clip-path="url(#e)"><g clip-path="url(#f)"><path fill="#FFF" d="M 349.15625 248.25 L 268.214844 248.617188 L 308.398438 178.316406 Z M 349.15625 248.25"/></g></g></g><g clip-path="url(#g)"><g clip-path="url(#h)"><g clip-path="url(#i)"><path fill="#FFF" d="M 335.949219 162.71875 L 404.09375 279.652344 L 214.019531 280.527344 L 281.21875 162.964844 L 242.933594 163.140625 L 156.726562 313.953125 L 461.648438 312.554688 L 374.234375 162.542969 Z M 335.949219 162.71875"/></g></g></g><g fill="#FFF"><g><g><path d="M 35.003906 -0.484375 L 35.003906 -58.902344 L 118.289062 -58.902344 L 118.289062 -0.484375 L 141.460938 -0.484375 L 141.460938 -78.214844 L 12.070312 -78.214844 L 12.070312 -0.484375 Z M 141.460938 -101.871094 L 141.460938 -168.980469 L 118.289062 -168.980469 L 118.289062 -101.871094 Z M 35.003906 -101.871094 L 35.003906 -168.980469 L 12.070312 -168.980469 L 12.070312 -101.871094 Z M 35.003906 -101.871094" transform="translate(502.513 291.067)"/></g></g></g><g fill="#FFF"><g><g><path d="M 106.699219 -168.742188 L 106.699219 -148.460938 C 121.910156 -146.289062 133.496094 -140.496094 141.460938 -131.324219 C 152.082031 -119.496094 157.152344 -103.804688 157.152344 -84.492188 C 157.152344 -65.660156 152.082031 -50.453125 141.460938 -38.382812 C 133.496094 -29.210938 121.910156 -23.65625 106.699219 -21.242188 L 106.699219 -0.484375 C 127.460938 -2.414062 144.117188 -9.898438 157.152344 -22.933594 C 172.601562 -38.382812 180.085938 -58.902344 180.085938 -84.492188 C 180.085938 -110.320312 172.601562 -130.839844 157.152344 -146.046875 C 144.117188 -159.324219 127.460938 -166.808594 106.699219 -168.742188 Z M 83.523438 -168.5 C 63.972656 -166.328125 47.796875 -158.84375 35.003906 -146.046875 C 19.796875 -130.839844 12.070312 -110.320312 12.070312 -84.492188 C 12.070312 -58.902344 19.796875 -38.382812 35.003906 -22.933594 C 47.796875 -10.378906 63.972656 -2.898438 83.523438 -0.722656 L 83.523438 -21.484375 C 69.765625 -24.140625 58.902344 -29.691406 51.175781 -38.382812 C 40.796875 -50.453125 35.484375 -65.660156 35.484375 -84.492188 C 35.484375 -103.804688 40.796875 -119.496094 51.175781 -131.324219 C 58.902344 -140.011719 69.765625 -145.808594 83.523438 -148.222656 Z M 83.523438 -168.5" transform="translate(655.803 291.067)"/></g></g></g><g fill="#FFF"><g><g><path d="M 66.628906 -169.222656 L 12.070312 -169.222656 L 12.3125 -146.773438 L 64.453125 -147.253906 C 73.628906 -147.253906 81.109375 -146.289062 87.386719 -143.394531 C 93.664062 -140.738281 99.699219 -136.875 105.492188 -131.5625 C 118.769531 -117.320312 125.289062 -101.628906 125.289062 -84.25 C 125.289062 -74.351562 123.839844 -65.660156 120.703125 -58.417969 C 117.804688 -51.175781 113.21875 -44.417969 107.425781 -38.140625 C 102.355469 -32.589844 96.5625 -28.484375 89.800781 -25.828125 C 83.042969 -23.417969 74.835938 -21.96875 64.9375 -21.96875 L 35.484375 -22.210938 L 35.484375 -123.117188 L 12.070312 -123.117188 L 12.070312 0 L 66.628906 0.242188 C 92.214844 0.242188 112.492188 -7.484375 127.21875 -22.449219 C 142.1875 -37.660156 149.429688 -58.179688 149.429688 -84.25 C 149.429688 -110.5625 142.1875 -131.082031 127.21875 -146.046875 C 112.253906 -161.5 91.972656 -169.222656 66.628906 -169.222656 Z M 66.628906 -169.222656" transform="translate(847.96 291.067)"/></g></g></g><g fill="#FFF"><g><g><path d="M 12.070312 -169.707031 L 12.070312 -42.488281 L 35.003906 -42.488281 L 35.003906 -80.871094 L 119.253906 -80.628906 L 119.253906 -100.183594 L 35.003906 -100.183594 L 35.003906 -150.394531 L 119.253906 -150.394531 L 119.253906 -169.707031 Z M 12.070312 -19.3125 L 12.070312 0 L 119.253906 0 L 119.253906 -19.3125 Z M 12.070312 -19.3125" transform="translate(1009.216 291.067)"/></g></g></g><g fill="#FFF"><g><g><path d="M 12.070312 -169.707031 L 12.070312 -80.871094 C 22.933594 -80.871094 39.347656 -81.109375 62.039062 -80.871094 C 84.730469 -80.871094 100.183594 -80.628906 108.390625 -80.628906 L 108.390625 -100.421875 L 35.003906 -100.421875 L 35.003906 -150.394531 L 108.390625 -150.394531 L 108.390625 -169.707031 Z M 12.070312 -57.695312 L 12.070312 0 L 35.003906 0 L 35.003906 -57.695312 Z M 12.070312 -57.695312" transform="translate(1140.539 291.067)"/></g></g></g><g fill="#FFF"><g><g><path d="M 12.070312 -169.464844 L 71.9375 -80.871094 L 95.113281 -80.871094 L 154.980469 -169.464844 L 130.355469 -169.464844 L 83.765625 -99.699219 L 36.691406 -169.464844 Z M 71.9375 -57.695312 L 71.9375 0 L 95.113281 0 L 95.113281 -57.695312 Z M 71.9375 -57.695312" transform="translate(1260.998 291.067)"/></g></g></g></svg>